<svg width="4327" height="345" viewBox="0 0 4327 345" fill="none" xmlns="http://www.w3.org/2000/svg">
<rect x="3170" y="6" width="1157" height="324" rx="10" fill="#181818"/>
<path d="M3222.38 269.112V246.072C3222.38 241.805 3224.43 239.672 3228.53 239.672H3250.54C3254.81 239.672 3256.94 241.805 3256.94 246.072V269.112C3256.94 273.037 3254.81 275 3250.54 275H3228.53C3226.65 275 3225.11 274.488 3223.92 273.464C3222.9 272.269 3222.38 270.819 3222.38 269.112ZM3283.75 180.792C3283.75 168.163 3284.26 157.155 3285.28 147.768C3286.48 138.381 3288.52 129.677 3291.43 121.656C3294.33 113.464 3298.17 106.808 3302.95 101.688C3307.72 96.568 3313.78 92.6427 3321.12 89.912C3328.63 87.0107 3337.42 85.56 3347.49 85.56C3371.9 85.56 3393.66 88.376 3412.77 94.008V122.168C3412.77 122.168 3412.34 122.168 3411.49 122.168C3410.81 121.997 3409.78 121.827 3408.42 121.656C3407.05 121.485 3405.43 121.315 3403.55 121.144C3401.68 120.973 3399.54 120.803 3397.15 120.632C3394.76 120.461 3392.29 120.291 3389.73 120.12C3387.17 119.949 3384.44 119.779 3381.54 119.608C3378.81 119.437 3375.99 119.267 3373.09 119.096C3370.36 118.925 3367.46 118.84 3364.39 118.84C3361.31 118.669 3358.5 118.584 3355.94 118.584C3351.16 118.584 3347.15 118.84 3343.91 119.352C3340.83 119.693 3337.76 120.632 3334.69 122.168C3331.79 123.704 3329.48 125.923 3327.78 128.824C3326.07 131.555 3324.54 135.224 3323.17 139.832C3321.8 144.44 3320.87 150.157 3320.35 156.984C3319.84 163.64 3319.59 171.747 3319.59 181.304C3319.59 203.491 3322.06 219.448 3327.01 229.176C3332.13 238.733 3341.77 243.512 3355.94 243.512C3363.96 243.512 3372.66 243.341 3382.05 243C3391.61 242.659 3399.12 242.317 3404.58 241.976L3412.77 241.464V269.368C3396.04 274.488 3374.28 276.877 3347.49 276.536C3335.88 276.365 3325.9 274.147 3317.54 269.88C3309.18 265.443 3302.52 259.043 3297.57 250.68C3292.79 242.147 3289.29 232.248 3287.07 220.984C3284.86 209.549 3283.75 196.152 3283.75 180.792ZM3428.97 208.952C3428.97 194.957 3430 183.437 3432.04 174.392C3434.09 165.347 3437.68 158.093 3442.8 152.632C3447.92 147.171 3454.23 143.331 3461.74 141.112C3469.42 138.893 3479.15 137.784 3490.92 137.784C3514.31 137.784 3530.43 142.904 3539.31 153.144C3548.35 163.384 3552.88 181.987 3552.88 208.952C3552.88 234.381 3548.44 251.96 3539.56 261.688C3530.86 271.416 3514.65 276.28 3490.92 276.28C3481.54 276.28 3473.35 275.512 3466.35 273.976C3459.52 272.269 3453.63 269.795 3448.68 266.552C3443.91 263.309 3440.07 259.043 3437.16 253.752C3434.26 248.291 3432.13 241.976 3430.76 234.808C3429.57 227.469 3428.97 218.851 3428.97 208.952ZM3464.81 208.952C3464.81 217.656 3465.24 224.568 3466.09 229.688C3466.95 234.808 3468.48 238.733 3470.7 241.464C3473.09 244.024 3475.73 245.645 3478.64 246.328C3481.54 247.011 3485.63 247.352 3490.92 247.352C3495.53 247.352 3499.03 247.181 3501.42 246.84C3503.98 246.499 3506.37 245.645 3508.59 244.28C3510.98 242.915 3512.68 240.781 3513.71 237.88C3514.9 234.979 3515.76 231.309 3516.27 226.872C3516.78 222.264 3517.04 216.291 3517.04 208.952C3517.04 201.101 3516.78 194.787 3516.27 190.008C3515.93 185.059 3515.24 180.963 3514.22 177.72C3513.2 174.307 3511.57 171.917 3509.36 170.552C3507.14 169.016 3504.66 167.992 3501.93 167.48C3499.2 166.797 3495.53 166.456 3490.92 166.456C3487.17 166.456 3484.1 166.627 3481.71 166.968C3479.32 167.309 3477.01 168.077 3474.8 169.272C3472.58 170.296 3470.87 171.747 3469.68 173.624C3468.65 175.331 3467.71 177.805 3466.86 181.048C3466.01 184.291 3465.41 188.131 3465.07 192.568C3464.9 197.005 3464.81 202.467 3464.81 208.952ZM3574.27 275V139.064H3602.94L3610.11 153.656C3610.62 153.315 3611.3 152.803 3612.16 152.12C3615.91 149.56 3618.73 147.683 3620.61 146.488C3622.65 145.123 3625.38 143.587 3628.8 141.88C3632.38 140.173 3636.05 138.979 3639.81 138.296C3643.56 137.443 3647.74 137.016 3652.35 137.016C3669.93 137.016 3681.7 142.904 3687.68 154.68C3703.72 142.904 3720.02 137.016 3736.57 137.016C3763.54 137.016 3777.02 152.973 3777.02 184.888V275H3741.18V184.376C3741.18 178.232 3739.82 173.624 3737.09 170.552C3734.53 167.48 3730.86 165.944 3726.08 165.944C3723.86 165.944 3721.73 166.029 3719.68 166.2C3717.63 166.371 3715.58 166.627 3713.53 166.968C3711.66 167.309 3709.78 167.736 3707.9 168.248C3706.2 168.76 3704.49 169.443 3702.78 170.296C3701.08 170.979 3699.37 171.917 3697.66 173.112C3696.13 174.136 3694.5 175.331 3692.8 176.696C3692.8 176.867 3692.8 177.379 3692.8 178.232C3692.97 178.915 3693.05 179.683 3693.05 180.536C3693.05 181.389 3693.05 182.243 3693.05 183.096C3693.05 183.949 3693.05 184.461 3693.05 184.632V275H3657.21V184.376C3657.21 181.304 3656.87 178.573 3656.19 176.184C3655.51 173.795 3654.48 171.917 3653.12 170.552C3651.75 169.016 3650.13 167.907 3648.25 167.224C3646.38 166.371 3644.33 165.944 3642.11 165.944C3637.5 165.944 3633.41 166.371 3629.82 167.224C3626.24 168.077 3623 169.357 3620.09 171.064C3617.19 172.6 3613.86 174.733 3610.11 177.464V275H3574.27ZM3798.27 275V139.064H3826.94L3834.11 153.656C3834.62 153.315 3835.3 152.803 3836.16 152.12C3839.91 149.56 3842.73 147.683 3844.61 146.488C3846.65 145.123 3849.38 143.587 3852.8 141.88C3856.38 140.173 3860.05 138.979 3863.81 138.296C3867.56 137.443 3871.74 137.016 3876.35 137.016C3893.93 137.016 3905.7 142.904 3911.68 154.68C3927.72 142.904 3944.02 137.016 3960.57 137.016C3987.54 137.016 4001.02 152.973 4001.02 184.888V275H3965.18V184.376C3965.18 178.232 3963.82 173.624 3961.09 170.552C3958.53 167.48 3954.86 165.944 3950.08 165.944C3947.86 165.944 3945.73 166.029 3943.68 166.2C3941.63 166.371 3939.58 166.627 3937.53 166.968C3935.66 167.309 3933.78 167.736 3931.9 168.248C3930.2 168.76 3928.49 169.443 3926.78 170.296C3925.08 170.979 3923.37 171.917 3921.66 173.112C3920.13 174.136 3918.5 175.331 3916.8 176.696C3916.8 176.867 3916.8 177.379 3916.8 178.232C3916.97 178.915 3917.05 179.683 3917.05 180.536C3917.05 181.389 3917.05 182.243 3917.05 183.096C3917.05 183.949 3917.05 184.461 3917.05 184.632V275H3881.21V184.376C3881.21 181.304 3880.87 178.573 3880.19 176.184C3879.51 173.795 3878.48 171.917 3877.12 170.552C3875.75 169.016 3874.13 167.907 3872.25 167.224C3870.38 166.371 3868.33 165.944 3866.11 165.944C3861.5 165.944 3857.41 166.371 3853.82 167.224C3850.24 168.077 3847 169.357 3844.09 171.064C3841.19 172.6 3837.86 174.733 3834.11 177.464V275H3798.27ZM4020.22 208.952C4020.22 194.957 4021.25 183.437 4023.29 174.392C4025.34 165.347 4028.93 158.093 4034.05 152.632C4039.17 147.171 4045.48 143.331 4052.99 141.112C4060.67 138.893 4070.4 137.784 4082.17 137.784C4105.56 137.784 4121.68 142.904 4130.56 153.144C4139.6 163.384 4144.13 181.987 4144.13 208.952C4144.13 234.381 4139.69 251.96 4130.81 261.688C4122.11 271.416 4105.9 276.28 4082.17 276.28C4072.79 276.28 4064.6 275.512 4057.6 273.976C4050.77 272.269 4044.88 269.795 4039.93 266.552C4035.16 263.309 4031.32 259.043 4028.41 253.752C4025.51 248.291 4023.38 241.976 4022.01 234.808C4020.82 227.469 4020.22 218.851 4020.22 208.952ZM4056.06 208.952C4056.06 217.656 4056.49 224.568 4057.34 229.688C4058.2 234.808 4059.73 238.733 4061.95 241.464C4064.34 244.024 4066.98 245.645 4069.89 246.328C4072.79 247.011 4076.88 247.352 4082.17 247.352C4086.78 247.352 4090.28 247.181 4092.67 246.84C4095.23 246.499 4097.62 245.645 4099.84 244.28C4102.23 242.915 4103.93 240.781 4104.96 237.88C4106.15 234.979 4107.01 231.309 4107.52 226.872C4108.03 222.264 4108.29 216.291 4108.29 208.952C4108.29 201.101 4108.03 194.787 4107.52 190.008C4107.18 185.059 4106.49 180.963 4105.47 177.72C4104.45 174.307 4102.82 171.917 4100.61 170.552C4098.39 169.016 4095.91 167.992 4093.18 167.48C4090.45 166.797 4086.78 166.456 4082.17 166.456C4078.42 166.456 4075.35 166.627 4072.96 166.968C4070.57 167.309 4068.26 168.077 4066.05 169.272C4063.83 170.296 4062.12 171.747 4060.93 173.624C4059.9 175.331 4058.96 177.805 4058.11 181.048C4057.26 184.291 4056.66 188.131 4056.32 192.568C4056.15 197.005 4056.06 202.467 4056.06 208.952ZM4165.52 275V139.064H4194.19L4201.36 153.656C4205.63 150.413 4208.61 148.28 4210.32 147.256C4212.2 146.061 4215.1 144.44 4219.02 142.392C4222.95 140.173 4226.87 138.723 4230.8 138.04C4234.9 137.187 4239.42 136.76 4244.37 136.76C4271.5 136.76 4285.07 152.632 4285.07 184.376V275H4249.23V183.864C4249.23 177.379 4247.87 172.685 4245.14 169.784C4242.58 166.883 4238.91 165.432 4234.13 165.432C4229.35 165.432 4225.08 165.944 4221.33 166.968C4217.74 167.821 4214.42 169.101 4211.34 170.808C4208.44 172.344 4205.11 174.477 4201.36 177.208V275H4165.52Z" fill="white"/>
<path d="M1827.36 275V87.608H1904.42C1934.28 87.608 1949.22 105.699 1949.22 141.88C1949.22 152.12 1948.19 160.909 1946.14 168.248C1944.27 175.587 1941.88 181.219 1938.98 185.144C1936.25 188.899 1932.66 191.885 1928.22 194.104C1923.79 196.152 1919.86 197.432 1916.45 197.944C1913.03 198.456 1909.02 198.712 1904.42 198.712C1899.47 198.712 1888.71 197.944 1872.16 196.408C1855.61 194.872 1846.99 193.933 1846.3 193.592V275H1827.36ZM1846.3 179.768H1904.42C1912.61 179.768 1918.92 177.293 1923.36 172.344C1927.8 167.395 1930.02 157.24 1930.02 141.88C1929.85 134.029 1928.91 127.544 1927.2 122.424C1925.49 117.304 1923.1 113.72 1920.03 111.672C1917.13 109.624 1914.57 108.344 1912.35 107.832C1910.13 107.149 1907.49 106.808 1904.42 106.808H1846.3V179.768ZM1973.55 208.952C1973.55 181.475 1977.9 162.787 1986.61 152.888C1995.31 142.819 2010.93 137.784 2033.45 137.784C2056.32 137.784 2072.02 142.904 2080.56 153.144C2089.09 163.213 2093.36 181.816 2093.36 208.952C2093.36 234.381 2089.09 251.96 2080.56 261.688C2072.02 271.416 2056.32 276.28 2033.45 276.28C2010.93 276.28 1995.31 271.245 1986.61 261.176C1977.9 251.107 1973.55 233.699 1973.55 208.952ZM1992.49 208.952C1992.49 220.045 1993.26 228.92 1994.8 235.576C1996.5 242.232 1999.32 247.096 2003.25 250.168C2007.34 253.24 2011.44 255.203 2015.53 256.056C2019.8 256.909 2025.77 257.336 2033.45 257.336C2041.3 257.336 2047.36 256.909 2051.63 256.056C2056.07 255.203 2060.16 253.24 2063.92 250.168C2067.84 246.925 2070.57 242.061 2072.11 235.576C2073.65 228.92 2074.41 220.045 2074.41 208.952C2074.41 196.835 2073.73 187.277 2072.37 180.28C2071.17 173.283 2068.7 168.077 2064.94 164.664C2061.19 161.08 2057.09 158.861 2052.65 158.008C2048.39 157.155 2041.99 156.728 2033.45 156.728C2026.97 156.728 2021.85 156.984 2018.09 157.496C2014.34 158.008 2010.58 159.203 2006.83 161.08C2003.08 162.957 2000.26 165.773 1998.38 169.528C1996.68 173.283 1995.22 178.403 1994.03 184.888C1993.01 191.203 1992.49 199.224 1992.49 208.952ZM2111.37 139.064H2132.11L2172.3 247.096L2207.63 139.064H2228.11L2214.28 182.584L2243.98 247.096L2285.45 139.064H2306.19L2254.22 275H2235.27L2205.07 208.44L2182.79 275H2162.31L2111.37 139.064ZM2324.05 206.392C2324.05 191.373 2325.07 179.341 2327.12 170.296C2329.17 161.08 2332.84 154.168 2338.13 149.56C2343.59 144.781 2349.56 141.709 2356.05 140.344C2362.71 138.808 2371.84 138.04 2383.44 138.04C2392.83 138.04 2400.17 138.467 2405.46 139.32C2410.75 140.173 2415.95 142.136 2421.07 145.208C2426.19 148.28 2429.86 153.144 2432.08 159.8C2434.3 166.456 2435.41 175.245 2435.41 186.168C2435.41 206.989 2423.72 217.4 2400.34 217.4H2342.99C2342.99 233.272 2344.79 243.939 2348.37 249.4C2351.95 254.691 2358.78 257.336 2368.85 257.336C2370.04 257.336 2371.84 257.336 2374.23 257.336C2376.62 257.336 2378.41 257.336 2379.6 257.336C2403.5 257.336 2421.24 256.483 2432.85 254.776V269.112C2415.95 273.891 2394.62 276.28 2368.85 276.28C2351.61 276.28 2339.84 271.331 2333.52 261.432C2327.21 251.533 2324.05 233.187 2324.05 206.392ZM2342.99 198.712H2400.34C2411.09 198.712 2416.47 194.531 2416.47 186.168C2416.47 173.027 2414.5 164.92 2410.58 161.848C2406.82 158.605 2397.86 156.984 2383.7 156.984C2377.72 156.984 2373.29 157.069 2370.39 157.24C2367.66 157.411 2364.33 157.923 2360.4 158.776C2356.65 159.459 2353.92 160.653 2352.21 162.36C2350.67 164.067 2348.97 166.456 2347.09 169.528C2345.38 172.6 2344.27 176.525 2343.76 181.304C2343.25 186.083 2342.99 191.885 2342.99 198.712ZM2461.11 275V139.064H2474.42L2480.05 156.216C2480.91 155.704 2483.04 154.424 2486.45 152.376C2490.04 150.328 2492.34 149.048 2493.37 148.536C2494.56 147.853 2496.69 146.744 2499.77 145.208C2502.84 143.672 2505.23 142.648 2506.93 142.136C2508.81 141.453 2511.12 140.685 2513.85 139.832C2516.75 138.979 2519.56 138.381 2522.29 138.04C2525.02 137.699 2527.84 137.528 2530.74 137.528C2540.64 137.528 2546.96 138.211 2549.69 139.576V158.264C2545.59 157.24 2539.28 156.728 2530.74 156.728C2524.26 156.728 2518.03 157.411 2512.05 158.776C2506.25 160.141 2501.56 161.592 2497.97 163.128C2494.56 164.664 2488.59 167.48 2480.05 171.576V275H2461.11ZM2571.39 148.536V131.64C2571.39 114.403 2575.83 102.541 2584.7 96.056C2593.58 89.4 2606.04 86.072 2622.08 86.072C2633.68 86.072 2655.02 88.12 2686.08 92.216V107.576L2622.08 105.016C2620.03 104.845 2618.24 104.76 2616.7 104.76C2608 104.76 2601.43 106.637 2596.99 110.392C2592.55 113.976 2590.33 121.059 2590.33 131.64V148.536C2590.33 159.117 2592.38 165.944 2596.48 169.016C2600.74 172.088 2607.4 173.624 2616.45 173.624H2652.8C2679.42 173.624 2692.73 188.301 2692.73 217.656V235.064C2692.73 243.768 2691.28 251.021 2688.38 256.824C2685.48 262.627 2681.38 266.979 2676.09 269.88C2670.8 272.611 2665.43 274.488 2659.97 275.512C2654.5 276.536 2648.19 277.048 2641.02 277.048C2635.05 277.048 2624.47 276.28 2609.28 274.744C2594.26 273.208 2583.51 271.843 2577.02 270.648V255.288C2595.8 257.165 2617.13 258.104 2641.02 258.104C2662.87 258.104 2673.79 250.424 2673.79 235.064V217.656C2673.79 209.635 2672.25 203.491 2669.18 199.224C2666.11 194.787 2660.65 192.568 2652.8 192.568H2616.96C2607.23 192.568 2599.12 191.373 2592.64 188.984C2586.32 186.595 2581.72 183.096 2578.81 178.488C2575.91 173.88 2573.95 169.357 2572.93 164.92C2571.9 160.312 2571.39 154.851 2571.39 148.536ZM2719.61 275V74.296H2738.55V154.936C2739.07 154.765 2740.94 153.741 2744.19 151.864C2747.43 149.816 2749.39 148.621 2750.07 148.28C2750.93 147.939 2752.8 147 2755.71 145.464C2758.61 143.757 2760.66 142.733 2761.85 142.392C2763.04 142.051 2765.01 141.368 2767.74 140.344C2770.47 139.32 2772.69 138.637 2774.39 138.296C2776.27 137.955 2778.49 137.613 2781.05 137.272C2783.61 136.931 2786.17 136.76 2788.73 136.76C2801.7 136.76 2811.94 141.027 2819.45 149.56C2826.96 158.093 2830.71 168.333 2830.71 180.28V275H2811.77V180.28C2811.77 172.088 2809.64 165.944 2805.37 161.848C2801.27 157.752 2795.73 155.704 2788.73 155.704C2782.24 155.704 2776.1 156.387 2770.3 157.752C2764.5 159.117 2759.8 160.568 2756.22 162.104C2752.8 163.469 2746.92 166.2 2738.55 170.296V275H2719.61ZM2856.3 206.392C2856.3 191.373 2857.32 179.341 2859.37 170.296C2861.42 161.08 2865.09 154.168 2870.38 149.56C2875.84 144.781 2881.81 141.709 2888.3 140.344C2894.96 138.808 2904.09 138.04 2915.69 138.04C2925.08 138.04 2932.42 138.467 2937.71 139.32C2943 140.173 2948.2 142.136 2953.32 145.208C2958.44 148.28 2962.11 153.144 2964.33 159.8C2966.55 166.456 2967.66 175.245 2967.66 186.168C2967.66 206.989 2955.97 217.4 2932.59 217.4H2875.24C2875.24 233.272 2877.04 243.939 2880.62 249.4C2884.2 254.691 2891.03 257.336 2901.1 257.336C2902.29 257.336 2904.09 257.336 2906.48 257.336C2908.87 257.336 2910.66 257.336 2911.85 257.336C2935.75 257.336 2953.49 256.483 2965.1 254.776V269.112C2948.2 273.891 2926.87 276.28 2901.1 276.28C2883.86 276.28 2872.09 271.331 2865.77 261.432C2859.46 251.533 2856.3 233.187 2856.3 206.392ZM2875.24 198.712H2932.59C2943.34 198.712 2948.72 194.531 2948.72 186.168C2948.72 173.027 2946.75 164.92 2942.83 161.848C2939.07 158.605 2930.11 156.984 2915.95 156.984C2909.97 156.984 2905.54 157.069 2902.64 157.24C2899.91 157.411 2896.58 157.923 2892.65 158.776C2888.9 159.459 2886.17 160.653 2884.46 162.36C2882.92 164.067 2881.22 166.456 2879.34 169.528C2877.63 172.6 2876.52 176.525 2876.01 181.304C2875.5 186.083 2875.24 191.885 2875.24 198.712ZM2993.36 226.616V74.552H3012.3V226.616C3012.3 237.027 3013.5 244.28 3015.89 248.376C3018.28 252.301 3021.95 254.861 3026.9 256.056C3040.89 259.64 3048.49 261.432 3049.68 261.432V275H3027.15C3004.62 275 2993.36 258.872 2993.36 226.616ZM3070.11 226.616V74.552H3089.05V226.616C3089.05 237.027 3090.25 244.28 3092.64 248.376C3095.03 252.301 3098.7 254.861 3103.65 256.056C3117.64 259.64 3125.24 261.432 3126.43 261.432V275H3103.9C3081.37 275 3070.11 258.872 3070.11 226.616Z" fill="#181818"/>
<rect y="7" width="1775" height="324" rx="10" fill="#181818"/>
<path d="M45.5436 238.136V126.52C45.5436 120.205 46.3969 114.659 48.1036 109.88C49.8102 105.101 52.0289 101.347 54.7596 98.616C57.4902 95.8853 60.6476 93.6667 64.2316 91.96C67.9862 90.0827 71.5702 88.888 74.9836 88.376C78.5676 87.864 82.3222 87.608 86.2476 87.608C130.28 88.8027 157.757 90.168 168.68 91.704V121.4H94.6956C91.4529 121.4 88.8929 121.741 87.0156 122.424C85.1382 123.107 83.7729 124.301 82.9196 126.008C82.2369 127.715 81.8102 129.165 81.6396 130.36C81.4689 131.555 81.3836 133.347 81.3836 135.736V164.92L157.16 167.48V197.176L81.3836 199.48V228.664C81.3836 231.907 81.8102 234.552 82.6636 236.6C83.5169 238.477 84.8822 239.843 86.7596 240.696C88.6369 241.379 90.1729 241.805 91.3676 241.976C92.7329 241.976 94.6956 241.976 97.2556 241.976H168.68V271.416C164.413 271.928 155.624 272.611 142.312 273.464C129 274.147 116.712 274.659 105.448 275L88.8076 275.768C84.8822 275.939 81.2129 275.853 77.7996 275.512C74.3862 275.171 70.6316 274.232 66.5356 272.696C62.4396 271.16 58.8556 269.112 55.7836 266.552C52.8822 263.992 50.4076 260.323 48.3596 255.544C46.4822 250.595 45.5436 244.792 45.5436 238.136ZM187.466 275V139.064H216.138L223.306 153.656C223.818 153.315 224.5 152.803 225.354 152.12C229.108 149.56 231.924 147.683 233.802 146.488C235.85 145.123 238.58 143.587 241.994 141.88C245.578 140.173 249.247 138.979 253.002 138.296C256.756 137.443 260.938 137.016 265.546 137.016C283.124 137.016 294.9 142.904 300.874 154.68C316.916 142.904 333.215 137.016 349.77 137.016C376.735 137.016 390.218 152.973 390.218 184.888V275H354.378V184.376C354.378 178.232 353.012 173.624 350.282 170.552C347.722 167.48 344.052 165.944 339.274 165.944C337.055 165.944 334.922 166.029 332.874 166.2C330.826 166.371 328.778 166.627 326.73 166.968C324.852 167.309 322.975 167.736 321.098 168.248C319.391 168.76 317.684 169.443 315.978 170.296C314.271 170.979 312.564 171.917 310.858 173.112C309.322 174.136 307.7 175.331 305.994 176.696C305.994 176.867 305.994 177.379 305.994 178.232C306.164 178.915 306.25 179.683 306.25 180.536C306.25 181.389 306.25 182.243 306.25 183.096C306.25 183.949 306.25 184.461 306.25 184.632V275H270.41V184.376C270.41 181.304 270.068 178.573 269.386 176.184C268.703 173.795 267.679 171.917 266.314 170.552C264.948 169.016 263.327 167.907 261.45 167.224C259.572 166.371 257.524 165.944 255.306 165.944C250.698 165.944 246.602 166.371 243.018 167.224C239.434 168.077 236.191 169.357 233.29 171.064C230.388 172.6 227.06 174.733 223.306 177.464V275H187.466ZM411.466 344.12V139.064H440.906L447.05 152.632C451.999 148.707 458.228 145.208 465.738 142.136C473.418 139.064 480.927 137.528 488.266 137.528C494.922 137.528 500.724 138.637 505.674 140.856C510.794 143.075 514.975 146.147 518.218 150.072C521.631 153.997 524.447 158.861 526.666 164.664C528.884 170.467 530.42 176.781 531.274 183.608C532.127 190.435 532.554 198.029 532.554 206.392C532.554 213.389 532.298 219.704 531.786 225.336C531.444 230.968 530.676 236.6 529.482 242.232C528.287 247.693 526.58 252.472 524.362 256.568C522.314 260.664 519.668 264.333 516.426 267.576C513.354 270.648 509.428 273.037 504.65 274.744C499.871 276.28 494.41 277.048 488.266 277.048C482.122 277.048 475.21 276.28 467.53 274.744C459.85 273.037 453.023 270.904 447.05 268.344V344.12H411.466ZM447.05 243.768C455.924 247.181 466.591 248.888 479.05 248.888C483.146 248.888 486.388 247.949 488.778 246.072C491.167 244.024 493.044 239.928 494.41 233.784C495.946 227.64 496.714 219.021 496.714 207.928C496.714 193.251 495.263 183.011 492.362 177.208C489.46 171.235 485.023 168.248 479.05 168.248C466.42 168.248 455.754 170.979 447.05 176.44V243.768ZM553.716 275V139.064H583.924L589.556 156.216C602.356 143.928 615.326 137.784 628.468 137.784C635.806 137.784 640.841 138.296 643.572 139.32V173.88C638.793 173.368 632.222 173.112 623.86 173.112C615.838 173.112 609.097 174.221 603.636 176.44C598.345 178.488 593.652 182.413 589.556 188.216V275H553.716ZM658.418 206.392C658.418 194.616 659.1 184.803 660.466 176.952C662.002 168.931 664.135 162.36 666.866 157.24C669.596 151.949 673.436 147.939 678.386 145.208C683.335 142.477 688.796 140.6 694.77 139.576C700.914 138.552 708.594 138.04 717.81 138.04C723.954 138.04 729.159 138.211 733.426 138.552C737.692 138.723 741.959 139.235 746.226 140.088C750.663 140.771 754.247 141.88 756.978 143.416C759.708 144.781 762.354 146.744 764.914 149.304C767.474 151.693 769.436 154.68 770.802 158.264C772.338 161.677 773.447 165.859 774.13 170.808C774.983 175.587 775.41 181.133 775.41 187.448C775.41 199.395 772.252 208.099 765.938 213.56C759.623 219.021 750.151 221.752 737.522 221.752H694.258C694.258 229.603 695.367 235.491 697.586 239.416C699.975 243.171 702.876 245.475 706.29 246.328C709.874 247.181 715.42 247.608 722.93 247.608C743.922 247.608 760.562 246.669 772.85 244.792V269.112C760.05 273.891 736.839 276.28 703.218 276.28C694.514 276.28 687.26 275 681.458 272.44C675.826 269.88 671.303 265.699 667.89 259.896C664.476 254.093 662.002 246.925 660.466 238.392C659.1 229.859 658.418 219.192 658.418 206.392ZM694.258 195.896H728.306C735.815 195.896 739.57 192.483 739.57 185.656C739.57 177.123 738.375 171.661 735.986 169.272C733.767 166.712 728.391 165.432 719.858 165.432C714.396 165.432 710.3 165.688 707.57 166.2C705.01 166.541 702.45 167.736 699.89 169.784C697.5 171.661 695.879 174.648 695.026 178.744C694.343 182.84 694.087 188.557 694.258 195.896ZM791.126 186.168V174.392C791.126 149.987 802.902 137.784 826.454 137.784C866.902 137.784 891.136 140.088 899.158 144.696V167.224H837.462C835.243 167.224 833.366 167.395 831.83 167.736C830.464 168.077 829.44 168.675 828.758 169.528C828.075 170.381 827.563 171.32 827.222 172.344C827.051 173.368 826.966 174.819 826.966 176.696V182.84C826.966 186.765 827.819 189.24 829.526 190.264C831.232 191.117 833.878 191.544 837.462 191.544H869.718C876.032 191.544 881.494 192.483 886.102 194.36C890.88 196.067 894.635 198.541 897.366 201.784C900.267 205.027 902.4 208.781 903.766 213.048C905.131 217.144 905.814 221.667 905.814 226.616V240.696C905.814 261.176 897.195 272.867 879.958 275.768C877.568 276.109 875.094 276.28 872.534 276.28C829.526 276.28 804.267 273.805 796.758 268.856V246.584H861.014C866.987 246.584 869.974 243.683 869.974 237.88V231.48C869.974 229.432 869.718 227.811 869.206 226.616C868.864 225.421 868.011 224.483 866.646 223.8C865.28 223.117 863.403 222.776 861.014 222.776H829.27C816.811 222.776 807.339 219.875 800.854 214.072C794.368 208.269 791.126 198.968 791.126 186.168ZM921.126 186.168V174.392C921.126 149.987 932.902 137.784 956.454 137.784C996.902 137.784 1021.14 140.088 1029.16 144.696V167.224H967.462C965.243 167.224 963.366 167.395 961.83 167.736C960.464 168.077 959.44 168.675 958.758 169.528C958.075 170.381 957.563 171.32 957.222 172.344C957.051 173.368 956.966 174.819 956.966 176.696V182.84C956.966 186.765 957.819 189.24 959.526 190.264C961.232 191.117 963.878 191.544 967.462 191.544H999.718C1006.03 191.544 1011.49 192.483 1016.1 194.36C1020.88 196.067 1024.63 198.541 1027.37 201.784C1030.27 205.027 1032.4 208.781 1033.77 213.048C1035.13 217.144 1035.81 221.667 1035.81 226.616V240.696C1035.81 261.176 1027.19 272.867 1009.96 275.768C1007.57 276.109 1005.09 276.28 1002.53 276.28C959.526 276.28 934.267 273.805 926.758 268.856V246.584H991.014C996.987 246.584 999.974 243.683 999.974 237.88V231.48C999.974 229.432 999.718 227.811 999.206 226.616C998.864 225.421 998.011 224.483 996.646 223.8C995.28 223.117 993.403 222.776 991.014 222.776H959.27C946.811 222.776 937.339 219.875 930.854 214.072C924.368 208.269 921.126 198.968 921.126 186.168ZM1059.83 269.112V246.072C1059.83 241.805 1061.88 239.672 1065.97 239.672H1087.99C1092.26 239.672 1094.39 241.805 1094.39 246.072V269.112C1094.39 273.037 1092.26 275 1087.99 275H1065.97C1064.1 275 1062.56 274.488 1061.37 273.464C1060.34 272.269 1059.83 270.819 1059.83 269.112ZM1126.06 238.648V87.608H1161.9V228.664C1161.9 231.907 1162.24 234.552 1162.92 236.6C1163.77 238.477 1165.14 239.757 1167.02 240.44C1169.06 241.123 1170.68 241.549 1171.88 241.72C1173.07 241.891 1175.04 241.976 1177.77 241.976H1242.02V275H1164.97C1139.03 275 1126.06 262.883 1126.06 238.648ZM1256.38 240.44V227.64C1256.38 222.349 1257.06 217.571 1258.42 213.304C1259.96 209.037 1262.26 205.112 1265.34 201.528C1268.41 197.944 1272.5 195.213 1277.62 193.336C1282.91 191.288 1289.14 190.264 1296.31 190.264C1302.97 190.264 1309.54 190.349 1316.02 190.52C1322.68 190.52 1329.42 190.435 1336.25 190.264C1336.42 184.632 1336.42 181.731 1336.25 181.56C1336.25 177.976 1335.82 175.075 1334.97 172.856C1334.28 170.637 1333.09 168.931 1331.38 167.736C1329.68 166.541 1327.8 165.773 1325.75 165.432C1323.7 165.091 1321.14 164.92 1318.07 164.92C1306.98 164.92 1287.95 165.859 1260.98 167.736V145.72C1276.17 139.747 1296.82 136.675 1322.94 136.504C1338.64 136.504 1350.75 139.832 1359.29 146.488C1367.82 152.973 1372.09 164.237 1372.09 180.28V275H1343.67L1336.25 260.152C1335.56 261.347 1333.35 263.224 1329.59 265.784C1326.01 268.173 1320.89 270.648 1314.23 273.208C1307.58 275.597 1301.09 276.707 1294.78 276.536C1282.49 276.195 1273.02 272.525 1266.36 265.528C1259.7 258.36 1256.38 249.997 1256.38 240.44ZM1292.22 235.32C1292.22 240.44 1293.32 243.853 1295.54 245.56C1297.76 247.096 1300.92 247.864 1305.02 247.864C1307.06 247.864 1309.2 247.693 1311.42 247.352C1313.63 246.84 1315.68 246.328 1317.56 245.816C1319.61 245.133 1321.57 244.451 1323.45 243.768C1325.32 242.915 1327.03 242.147 1328.57 241.464C1330.1 240.611 1331.38 239.928 1332.41 239.416C1333.6 238.733 1334.54 238.221 1335.22 237.88C1335.91 237.368 1336.25 237.112 1336.25 237.112V212.28L1303.22 214.84C1301 215.011 1299.13 215.608 1297.59 216.632C1296.06 217.485 1294.86 218.595 1294.01 219.96C1293.32 221.325 1292.81 222.691 1292.47 224.056C1292.3 225.421 1292.22 226.957 1292.22 228.664V235.32ZM1392.97 275V74.04H1428.55V145.976C1431.45 144.44 1434.78 143.16 1438.53 142.136C1442.29 140.941 1445.96 140.003 1449.54 139.32C1453.13 138.637 1456.62 138.125 1460.04 137.784C1463.62 137.272 1466.86 137.016 1469.77 137.016C1477.1 137.016 1483.42 138.211 1488.71 140.6C1494.17 142.819 1498.52 145.891 1501.77 149.816C1505.01 153.571 1507.57 158.52 1509.45 164.664C1511.32 170.808 1512.52 177.208 1513.03 183.864C1513.71 190.52 1514.05 198.456 1514.05 207.672C1514.05 229.688 1510.64 246.669 1503.81 258.616C1496.99 270.563 1485.64 276.536 1469.77 276.536C1462.43 276.536 1455 275 1447.49 271.928C1439.98 268.856 1433.75 265.272 1428.81 261.176L1422.41 275H1392.97ZM1428.81 237.624C1437.51 243.085 1448.09 245.816 1460.55 245.816C1464.47 245.816 1467.72 244.707 1470.28 242.488C1472.84 240.099 1474.8 236.003 1476.17 230.2C1477.53 224.227 1478.21 216.291 1478.21 206.392C1478.21 195.128 1477.45 186.424 1475.91 180.28C1474.54 174.136 1472.67 170.125 1470.28 168.248C1467.89 166.2 1464.65 165.176 1460.55 165.176C1454.23 165.176 1448.52 165.603 1443.4 166.456C1438.28 167.139 1433.41 168.419 1428.81 170.296V237.624ZM1531.38 186.168V174.392C1531.38 149.987 1543.15 137.784 1566.7 137.784C1607.15 137.784 1631.39 140.088 1639.41 144.696V167.224H1577.71C1575.49 167.224 1573.62 167.395 1572.08 167.736C1570.71 168.077 1569.69 168.675 1569.01 169.528C1568.32 170.381 1567.81 171.32 1567.47 172.344C1567.3 173.368 1567.22 174.819 1567.22 176.696V182.84C1567.22 186.765 1568.07 189.24 1569.78 190.264C1571.48 191.117 1574.13 191.544 1577.71 191.544H1609.97C1616.28 191.544 1621.74 192.483 1626.35 194.36C1631.13 196.067 1634.88 198.541 1637.62 201.784C1640.52 205.027 1642.65 208.781 1644.02 213.048C1645.38 217.144 1646.06 221.667 1646.06 226.616V240.696C1646.06 261.176 1637.44 272.867 1620.21 275.768C1617.82 276.109 1615.34 276.28 1612.78 276.28C1569.78 276.28 1544.52 273.805 1537.01 268.856V246.584H1601.26C1607.24 246.584 1610.22 243.683 1610.22 237.88V231.48C1610.22 229.432 1609.97 227.811 1609.46 226.616C1609.11 225.421 1608.26 224.483 1606.9 223.8C1605.53 223.117 1603.65 222.776 1601.26 222.776H1569.52C1557.06 222.776 1547.59 219.875 1541.1 214.072C1534.62 208.269 1531.38 198.968 1531.38 186.168ZM1670.08 269.112V246.072C1670.08 241.805 1672.13 239.672 1676.22 239.672H1698.24C1702.51 239.672 1704.64 241.805 1704.64 246.072V269.112C1704.64 273.037 1702.51 275 1698.24 275H1676.22C1674.35 275 1672.81 274.488 1671.62 273.464C1670.59 272.269 1670.08 270.819 1670.08 269.112Z" fill="white"/>
</svg>
