<svg width="4320" height="368" viewBox="0 0 4320 368" fill="none" xmlns="http://www.w3.org/2000/svg">
<path d="M3200.76 294.112V279.52C3200.76 275.253 3202.81 273.12 3206.9 273.12H3220.47C3224.74 273.12 3226.87 275.253 3226.87 279.52V294.112C3226.87 298.037 3224.74 300 3220.47 300H3206.9C3202.81 300 3200.76 298.037 3200.76 294.112ZM3262.83 205.792C3262.83 173.365 3267.18 149.387 3275.89 133.856C3284.76 118.325 3301.23 110.56 3325.29 110.56C3343.9 110.56 3364.72 112.693 3387.76 116.96V132.064H3385.45C3383.92 131.893 3381.87 131.723 3379.31 131.552C3376.75 131.381 3373.76 131.211 3370.35 131.04C3367.11 130.869 3363.52 130.699 3359.6 130.528C3355.67 130.357 3351.75 130.187 3347.82 130.016C3344.07 129.845 3340.14 129.76 3336.05 129.76C3332.12 129.589 3328.54 129.504 3325.29 129.504C3314.2 129.504 3305.58 131.637 3299.44 135.904C3293.46 140 3289.03 147.595 3286.13 158.688C3283.22 169.611 3281.77 185.483 3281.77 206.304C3281.77 257.163 3296.28 282.592 3325.29 282.592L3387.76 280.8V295.904C3367.62 299.659 3346.8 301.536 3325.29 301.536C3283.65 301.536 3262.83 269.621 3262.83 205.792ZM3409.55 233.952C3409.55 206.475 3413.9 187.787 3422.61 177.888C3431.31 167.819 3446.93 162.784 3469.45 162.784C3492.32 162.784 3508.02 167.904 3516.56 178.144C3525.09 188.213 3529.36 206.816 3529.36 233.952C3529.36 259.381 3525.09 276.96 3516.56 286.688C3508.02 296.416 3492.32 301.28 3469.45 301.28C3446.93 301.28 3431.31 296.245 3422.61 286.176C3413.9 276.107 3409.55 258.699 3409.55 233.952ZM3428.49 233.952C3428.49 245.045 3429.26 253.92 3430.8 260.576C3432.5 267.232 3435.32 272.096 3439.25 275.168C3443.34 278.24 3447.44 280.203 3451.53 281.056C3455.8 281.909 3461.77 282.336 3469.45 282.336C3477.3 282.336 3483.36 281.909 3487.63 281.056C3492.07 280.203 3496.16 278.24 3499.92 275.168C3503.84 271.925 3506.57 267.061 3508.11 260.576C3509.65 253.92 3510.41 245.045 3510.41 233.952C3510.41 221.835 3509.73 212.277 3508.37 205.28C3507.17 198.283 3504.7 193.077 3500.94 189.664C3497.19 186.08 3493.09 183.861 3488.65 183.008C3484.39 182.155 3477.99 181.728 3469.45 181.728C3462.97 181.728 3457.85 181.984 3454.09 182.496C3450.34 183.008 3446.58 184.203 3442.83 186.08C3439.08 187.957 3436.26 190.773 3434.38 194.528C3432.68 198.283 3431.22 203.403 3430.03 209.888C3429.01 216.203 3428.49 224.224 3428.49 233.952ZM3557.61 300V164.064H3570.92L3576.55 180.448C3577.58 179.765 3579.63 178.571 3582.7 176.864C3585.94 174.987 3588.16 173.707 3589.35 173.024C3590.72 172.171 3592.77 171.061 3595.5 169.696C3598.4 168.331 3600.7 167.392 3602.41 166.88C3604.29 166.197 3606.51 165.429 3609.07 164.576C3611.63 163.723 3614.19 163.211 3616.75 163.04C3619.48 162.699 3622.21 162.528 3624.94 162.528C3633.47 162.528 3641.15 164.32 3647.98 167.904C3654.8 171.488 3659.67 176.352 3662.57 182.496C3678.61 169.184 3696.87 162.528 3717.35 162.528C3729.3 162.528 3739.28 166.624 3747.31 174.816C3755.33 183.008 3759.34 193.504 3759.34 206.304V300H3740.39V206.304C3740.39 198.795 3738.18 192.821 3733.74 188.384C3729.47 183.776 3724.01 181.472 3717.35 181.472C3707.11 181.472 3698.24 182.496 3690.73 184.544C3683.39 186.592 3675.54 190.347 3667.18 195.808V205.792V300H3648.23V206.304C3648.23 198.795 3646.02 192.821 3641.58 188.384C3637.31 183.776 3631.76 181.472 3624.94 181.472C3618.62 181.472 3612.65 182.155 3607.02 183.52C3601.56 184.885 3597.29 186.251 3594.22 187.616C3591.15 188.811 3585.26 191.541 3576.55 195.808V300H3557.61ZM3787.61 300V164.064H3800.92L3806.55 180.448C3807.58 179.765 3809.63 178.571 3812.7 176.864C3815.94 174.987 3818.16 173.707 3819.35 173.024C3820.72 172.171 3822.77 171.061 3825.5 169.696C3828.4 168.331 3830.7 167.392 3832.41 166.88C3834.29 166.197 3836.51 165.429 3839.07 164.576C3841.63 163.723 3844.19 163.211 3846.75 163.04C3849.48 162.699 3852.21 162.528 3854.94 162.528C3863.47 162.528 3871.15 164.32 3877.98 167.904C3884.8 171.488 3889.67 176.352 3892.57 182.496C3908.61 169.184 3926.87 162.528 3947.35 162.528C3959.3 162.528 3969.28 166.624 3977.31 174.816C3985.33 183.008 3989.34 193.504 3989.34 206.304V300H3970.39V206.304C3970.39 198.795 3968.18 192.821 3963.74 188.384C3959.47 183.776 3954.01 181.472 3947.35 181.472C3937.11 181.472 3928.24 182.496 3920.73 184.544C3913.39 186.592 3905.54 190.347 3897.18 195.808V205.792V300H3878.23V206.304C3878.23 198.795 3876.02 192.821 3871.58 188.384C3867.31 183.776 3861.76 181.472 3854.94 181.472C3848.62 181.472 3842.65 182.155 3837.02 183.52C3831.56 184.885 3827.29 186.251 3824.22 187.616C3821.15 188.811 3815.26 191.541 3806.55 195.808V300H3787.61ZM4015.05 233.952C4015.05 206.475 4019.4 187.787 4028.11 177.888C4036.81 167.819 4052.43 162.784 4074.95 162.784C4097.82 162.784 4113.52 167.904 4122.06 178.144C4130.59 188.213 4134.86 206.816 4134.86 233.952C4134.86 259.381 4130.59 276.96 4122.06 286.688C4113.52 296.416 4097.82 301.28 4074.95 301.28C4052.43 301.28 4036.81 296.245 4028.11 286.176C4019.4 276.107 4015.05 258.699 4015.05 233.952ZM4033.99 233.952C4033.99 245.045 4034.76 253.92 4036.3 260.576C4038 267.232 4040.82 272.096 4044.75 275.168C4048.84 278.24 4052.94 280.203 4057.03 281.056C4061.3 281.909 4067.27 282.336 4074.95 282.336C4082.8 282.336 4088.86 281.909 4093.13 281.056C4097.57 280.203 4101.66 278.24 4105.42 275.168C4109.34 271.925 4112.07 267.061 4113.61 260.576C4115.15 253.92 4115.91 245.045 4115.91 233.952C4115.91 221.835 4115.23 212.277 4113.87 205.28C4112.67 198.283 4110.2 193.077 4106.44 189.664C4102.69 186.08 4098.59 183.861 4094.15 183.008C4089.89 182.155 4083.49 181.728 4074.95 181.728C4068.47 181.728 4063.35 181.984 4059.59 182.496C4055.84 183.008 4052.08 184.203 4048.33 186.08C4044.58 187.957 4041.76 190.773 4039.88 194.528C4038.18 198.283 4036.72 203.403 4035.53 209.888C4034.51 216.203 4033.99 224.224 4033.99 233.952ZM4163.11 300V164.064H4176.42L4182.05 179.936C4182.57 179.765 4184.44 178.741 4187.69 176.864C4190.93 174.816 4192.89 173.621 4193.57 173.28C4194.43 172.939 4196.3 172 4199.21 170.464C4202.11 168.757 4204.16 167.733 4205.35 167.392C4206.54 167.051 4208.51 166.368 4211.24 165.344C4213.97 164.32 4216.19 163.637 4217.89 163.296C4219.77 162.955 4221.99 162.613 4224.55 162.272C4227.11 161.931 4229.67 161.76 4232.23 161.76C4245.2 161.76 4255.44 166.027 4262.95 174.56C4270.46 183.093 4274.21 193.333 4274.21 205.28V300H4255.27V205.28C4255.27 197.259 4253.14 191.2 4248.87 187.104C4244.6 182.837 4239.06 180.704 4232.23 180.704C4225.74 180.704 4219.6 181.387 4213.8 182.752C4208 184.117 4203.3 185.568 4199.72 187.104C4196.3 188.469 4190.42 191.2 4182.05 195.296V300H4163.11Z" fill="#181818"/>
<rect x="1751" y="7" width="1416" height="324" rx="10" fill="#181818"/>
<path d="M1788.54 275V87.608H1869.18C1874.47 87.608 1879.25 88.0347 1883.52 88.888C1887.96 89.5707 1892.56 91.1067 1897.34 93.496C1902.29 95.8853 1906.39 99.128 1909.63 103.224C1913.04 107.32 1915.78 112.952 1917.82 120.12C1920.04 127.288 1921.15 135.736 1921.15 145.464C1921.15 152.291 1920.64 158.605 1919.62 164.408C1918.76 170.211 1917.57 175.16 1916.03 179.256C1914.5 183.181 1912.62 186.765 1910.4 190.008C1908.18 193.08 1905.79 195.555 1903.23 197.432C1900.67 199.139 1897.94 200.675 1895.04 202.04C1892.14 203.405 1889.24 204.344 1886.34 204.856C1883.43 205.197 1880.53 205.539 1877.63 205.88C1874.73 206.051 1871.91 206.051 1869.18 205.88C1864.23 205.539 1855.7 204.685 1843.58 203.32C1831.47 201.955 1825.07 201.101 1824.38 200.76V275H1788.54ZM1824.38 174.136H1866.37C1872.51 174.136 1877.12 172.088 1880.19 167.992C1883.43 163.896 1885.06 156.472 1885.06 145.72C1884.88 128.141 1878.66 119.352 1866.37 119.352H1824.38V174.136ZM1938.96 208.952C1938.96 194.957 1939.98 183.437 1942.03 174.392C1944.08 165.347 1947.66 158.093 1952.78 152.632C1957.9 147.171 1964.22 143.331 1971.73 141.112C1979.41 138.893 1989.14 137.784 2000.91 137.784C2024.29 137.784 2040.42 142.904 2049.3 153.144C2058.34 163.384 2062.86 181.987 2062.86 208.952C2062.86 234.381 2058.43 251.96 2049.55 261.688C2040.85 271.416 2024.63 276.28 2000.91 276.28C1991.52 276.28 1983.33 275.512 1976.34 273.976C1969.51 272.269 1963.62 269.795 1958.67 266.552C1953.89 263.309 1950.05 259.043 1947.15 253.752C1944.25 248.291 1942.12 241.976 1940.75 234.808C1939.56 227.469 1938.96 218.851 1938.96 208.952ZM1974.8 208.952C1974.8 217.656 1975.23 224.568 1976.08 229.688C1976.93 234.808 1978.47 238.733 1980.69 241.464C1983.08 244.024 1985.72 245.645 1988.62 246.328C1991.52 247.011 1995.62 247.352 2000.91 247.352C2005.52 247.352 2009.02 247.181 2011.41 246.84C2013.97 246.499 2016.36 245.645 2018.58 244.28C2020.96 242.915 2022.67 240.781 2023.7 237.88C2024.89 234.979 2025.74 231.309 2026.26 226.872C2026.77 222.264 2027.02 216.291 2027.02 208.952C2027.02 201.101 2026.77 194.787 2026.26 190.008C2025.91 185.059 2025.23 180.963 2024.21 177.72C2023.18 174.307 2021.56 171.917 2019.34 170.552C2017.12 169.016 2014.65 167.992 2011.92 167.48C2009.19 166.797 2005.52 166.456 2000.91 166.456C1997.16 166.456 1994.08 166.627 1991.7 166.968C1989.31 167.309 1987 168.077 1984.78 169.272C1982.56 170.296 1980.86 171.747 1979.66 173.624C1978.64 175.331 1977.7 177.805 1976.85 181.048C1975.99 184.291 1975.4 188.131 1975.06 192.568C1974.88 197.005 1974.8 202.467 1974.8 208.952ZM2076.58 139.064H2114.98L2142.11 233.016L2166.43 139.064H2202.27L2192.8 175.672L2215.33 233.016L2242.21 139.064H2280.61L2236.58 275H2196.64L2176.16 225.848L2160.8 275H2120.1L2076.58 139.064ZM2293.71 206.392C2293.71 194.616 2294.39 184.803 2295.76 176.952C2297.29 168.931 2299.43 162.36 2302.16 157.24C2304.89 151.949 2308.73 147.939 2313.68 145.208C2318.63 142.477 2324.09 140.6 2330.06 139.576C2336.21 138.552 2343.89 138.04 2353.1 138.04C2359.25 138.04 2364.45 138.211 2368.72 138.552C2372.98 138.723 2377.25 139.235 2381.52 140.088C2385.95 140.771 2389.54 141.88 2392.27 143.416C2395 144.781 2397.65 146.744 2400.21 149.304C2402.77 151.693 2404.73 154.68 2406.09 158.264C2407.63 161.677 2408.74 165.859 2409.42 170.808C2410.27 175.587 2410.7 181.133 2410.7 187.448C2410.7 199.395 2407.54 208.099 2401.23 213.56C2394.91 219.021 2385.44 221.752 2372.81 221.752H2329.55C2329.55 229.603 2330.66 235.491 2332.88 239.416C2335.27 243.171 2338.17 245.475 2341.58 246.328C2345.17 247.181 2350.71 247.608 2358.22 247.608C2379.21 247.608 2395.85 246.669 2408.14 244.792V269.112C2395.34 273.891 2372.13 276.28 2338.51 276.28C2329.81 276.28 2322.55 275 2316.75 272.44C2311.12 269.88 2306.59 265.699 2303.18 259.896C2299.77 254.093 2297.29 246.925 2295.76 238.392C2294.39 229.859 2293.71 219.192 2293.71 206.392ZM2329.55 195.896H2363.6C2371.11 195.896 2374.86 192.483 2374.86 185.656C2374.86 177.123 2373.67 171.661 2371.28 169.272C2369.06 166.712 2363.68 165.432 2355.15 165.432C2349.69 165.432 2345.59 165.688 2342.86 166.2C2340.3 166.541 2337.74 167.736 2335.18 169.784C2332.79 171.661 2331.17 174.648 2330.32 178.744C2329.63 182.84 2329.38 188.557 2329.55 195.896ZM2430.26 275V139.064H2460.47L2466.1 156.216C2478.9 143.928 2491.87 137.784 2505.01 137.784C2512.35 137.784 2517.38 138.296 2520.11 139.32V173.88C2515.33 173.368 2508.76 173.112 2500.4 173.112C2492.38 173.112 2485.64 174.221 2480.18 176.44C2474.89 178.488 2470.19 182.413 2466.1 188.216V275H2430.26ZM2538.03 150.584V134.456C2538.03 127.288 2538.88 120.888 2540.59 115.256C2542.3 109.624 2544.6 105.016 2547.5 101.432C2550.4 97.848 2553.99 94.9467 2558.26 92.728C2562.69 90.3387 2567.3 88.7173 2572.08 87.864C2577.03 86.84 2582.58 86.2427 2588.72 86.072C2601.69 85.7307 2615.09 86.328 2628.91 87.864C2642.74 89.4 2653.49 91.2773 2661.17 93.496V121.656C2641.71 119.949 2620.8 119.096 2598.45 119.096C2589.4 118.925 2583 119.949 2579.25 122.168C2575.66 124.216 2573.87 129.251 2573.87 137.272V146.488C2573.87 153.656 2575.32 158.435 2578.22 160.824C2581.12 163.213 2586.33 164.408 2593.84 164.408H2623.54C2627.97 164.408 2632.07 164.835 2635.82 165.688C2639.75 166.541 2643.08 167.736 2645.81 169.272C2648.71 170.808 2651.27 172.6 2653.49 174.648C2655.88 176.696 2657.84 179 2659.38 181.56C2661.08 184.12 2662.45 186.765 2663.47 189.496C2664.67 192.056 2665.52 194.787 2666.03 197.688C2666.71 200.589 2667.14 203.405 2667.31 206.136C2667.65 208.696 2667.82 211.341 2667.82 214.072V226.616C2667.82 234.808 2666.8 241.976 2664.75 248.12C2662.7 254.264 2660.06 259.128 2656.82 262.712C2653.74 266.296 2649.82 269.197 2645.04 271.416C2640.43 273.635 2635.82 275.085 2631.22 275.768C2626.61 276.621 2621.57 277.048 2616.11 277.048C2585.22 277.048 2561.07 274.488 2543.66 269.368V241.208C2562.44 243.085 2584.2 244.024 2608.94 244.024C2612.19 244.024 2614.92 243.853 2617.14 243.512C2619.52 243.171 2621.91 242.488 2624.3 241.464C2626.86 240.44 2628.74 238.819 2629.94 236.6C2631.3 234.211 2631.98 231.309 2631.98 227.896V217.912C2631.98 211.939 2630.79 207.501 2628.4 204.6C2626.01 201.699 2621.57 200.248 2615.09 200.248H2586.42C2554.16 200.077 2538.03 183.523 2538.03 150.584ZM2688.01 275V74.552H2723.59V153.656C2726.15 151.779 2727.77 150.584 2728.46 150.072C2729.31 149.56 2730.93 148.451 2733.32 146.744C2735.88 145.037 2737.76 143.928 2738.95 143.416C2740.15 142.904 2742.02 142.136 2744.58 141.112C2747.14 139.917 2749.36 139.149 2751.24 138.808C2753.29 138.296 2755.68 137.869 2758.41 137.528C2761.14 137.016 2763.95 136.76 2766.86 136.76C2793.99 136.76 2807.56 152.632 2807.56 184.376V275H2771.72V183.864C2771.72 177.379 2770.35 172.685 2767.62 169.784C2765.06 166.883 2761.39 165.432 2756.62 165.432C2751.84 165.432 2747.57 165.944 2743.82 166.968C2740.23 167.821 2736.9 169.101 2733.83 170.808C2730.93 172.344 2727.6 174.477 2723.85 177.208V275H2688.01ZM2826.71 206.392C2826.71 194.616 2827.39 184.803 2828.76 176.952C2830.29 168.931 2832.43 162.36 2835.16 157.24C2837.89 151.949 2841.73 147.939 2846.68 145.208C2851.63 142.477 2857.09 140.6 2863.06 139.576C2869.21 138.552 2876.89 138.04 2886.1 138.04C2892.25 138.04 2897.45 138.211 2901.72 138.552C2905.98 138.723 2910.25 139.235 2914.52 140.088C2918.95 140.771 2922.54 141.88 2925.27 143.416C2928 144.781 2930.65 146.744 2933.21 149.304C2935.77 151.693 2937.73 154.68 2939.09 158.264C2940.63 161.677 2941.74 165.859 2942.42 170.808C2943.27 175.587 2943.7 181.133 2943.7 187.448C2943.7 199.395 2940.54 208.099 2934.23 213.56C2927.91 219.021 2918.44 221.752 2905.81 221.752H2862.55C2862.55 229.603 2863.66 235.491 2865.88 239.416C2868.27 243.171 2871.17 245.475 2874.58 246.328C2878.17 247.181 2883.71 247.608 2891.22 247.608C2912.21 247.608 2928.85 246.669 2941.14 244.792V269.112C2928.34 273.891 2905.13 276.28 2871.51 276.28C2862.81 276.28 2855.55 275 2849.75 272.44C2844.12 269.88 2839.59 265.699 2836.18 259.896C2832.77 254.093 2830.29 246.925 2828.76 238.392C2827.39 229.859 2826.71 219.192 2826.71 206.392ZM2862.55 195.896H2896.6C2904.11 195.896 2907.86 192.483 2907.86 185.656C2907.86 177.123 2906.67 171.661 2904.28 169.272C2902.06 166.712 2896.68 165.432 2888.15 165.432C2882.69 165.432 2878.59 165.688 2875.86 166.2C2873.3 166.541 2870.74 167.736 2868.18 169.784C2865.79 171.661 2864.17 174.648 2863.32 178.744C2862.63 182.84 2862.38 188.557 2862.55 195.896ZM2963.26 226.616V74.552H2999.1V220.984C2999.1 230.029 3000.04 236.344 3001.91 239.928C3003.79 243.512 3006.78 246.072 3010.87 247.608C3021.11 251.192 3026.83 252.984 3028.03 252.984V275H2998.33C2992.7 275 2987.75 274.147 2983.48 272.44C2979.21 270.733 2975.55 268.088 2972.47 264.504C2969.4 260.749 2967.1 255.715 2965.56 249.4C2964.03 243.085 2963.26 235.491 2963.26 226.616ZM3043.51 226.616V74.552H3079.35V220.984C3079.35 230.029 3080.29 236.344 3082.16 239.928C3084.04 243.512 3087.03 246.072 3091.12 247.608C3101.36 251.192 3107.08 252.984 3108.28 252.984V275H3078.58C3072.95 275 3068 274.147 3063.73 272.44C3059.46 270.733 3055.8 268.088 3052.72 264.504C3049.65 260.749 3047.35 255.715 3045.81 249.4C3044.28 243.085 3043.51 235.491 3043.51 226.616Z" fill="white"/>
<path d="M20.48 266.512V143.888C20.48 132.453 23.296 124.091 28.928 118.8C34.56 113.339 41.8133 110.608 50.688 110.608C51.0293 110.608 51.3707 110.608 51.712 110.608C52.0533 110.608 52.3947 110.608 52.736 110.608L133.632 114.704V129.552H52.736C48.64 129.552 45.4827 130.405 43.264 132.112C41.216 133.648 40.0213 135.269 39.68 136.976C39.5093 138.512 39.424 140.816 39.424 143.888V195.088L123.392 197.648V212.752L39.424 215.312V266.512C39.424 269.584 39.8507 272.144 40.704 274.192C41.5573 276.069 42.8373 277.435 44.544 278.288C46.2507 278.971 47.7013 279.397 48.896 279.568C50.2613 279.739 52.1387 279.824 54.528 279.824C54.528 279.824 54.6133 279.824 54.784 279.824C54.9547 279.824 55.1253 279.824 55.296 279.824H133.632V294.416L55.296 298.768C54.6133 298.768 53.9307 298.768 53.248 298.768C52.5653 298.939 51.8827 299.024 51.2 299.024C46.9333 299.024 43.0933 298.597 39.68 297.744C36.2667 296.72 33.024 295.099 29.952 292.88C27.0507 290.491 24.7467 287.077 23.04 282.64C21.3333 278.203 20.48 272.827 20.48 266.512ZM160.61 298V162.064H173.922L179.554 178.448C180.578 177.765 182.626 176.571 185.698 174.864C188.941 172.987 191.159 171.707 192.354 171.024C193.719 170.171 195.767 169.061 198.498 167.696C201.399 166.331 203.703 165.392 205.41 164.88C207.287 164.197 209.506 163.429 212.066 162.576C214.626 161.723 217.186 161.211 219.746 161.04C222.477 160.699 225.207 160.528 227.938 160.528C236.471 160.528 244.151 162.32 250.978 165.904C257.805 169.488 262.669 174.352 265.57 180.496C281.613 167.184 299.874 160.528 320.354 160.528C332.301 160.528 342.285 164.624 350.306 172.816C358.327 181.008 362.338 191.504 362.338 204.304V298H343.394V204.304C343.394 196.795 341.175 190.821 336.738 186.384C332.471 181.776 327.01 179.472 320.354 179.472C310.114 179.472 301.239 180.496 293.73 182.544C286.391 184.592 278.541 188.347 270.178 193.808V203.792V298H251.234V204.304C251.234 196.795 249.015 190.821 244.578 186.384C240.311 181.776 234.765 179.472 227.938 179.472C221.623 179.472 215.65 180.155 210.018 181.52C204.557 182.885 200.29 184.251 197.218 185.616C194.146 186.811 188.258 189.541 179.554 193.808V298H160.61ZM390.61 367.12V162.064H404.178L409.042 177.168C413.309 174.096 420.818 170.597 431.57 166.672C442.322 162.576 451.623 160.528 459.474 160.528C468.349 160.528 475.858 162.576 482.002 166.672C488.146 170.768 492.754 176.4 495.826 183.568C498.898 190.565 501.031 197.819 502.226 205.328C503.591 212.667 504.274 220.688 504.274 229.392C504.274 239.291 503.677 247.995 502.482 255.504C501.458 262.843 499.41 270.181 496.338 277.52C493.437 284.688 488.829 290.235 482.514 294.16C476.37 298.085 468.69 300.048 459.474 300.048C453.159 300.048 445.053 299.109 435.154 297.232C425.426 295.355 416.722 292.88 409.042 289.808V367.12H390.61ZM409.042 274.448C426.109 278.885 442.919 281.104 459.474 281.104C468.349 281.104 474.834 277.435 478.93 270.096C483.197 262.757 485.33 249.189 485.33 229.392C485.33 196.112 476.711 179.472 459.474 179.472C445.138 179.472 428.327 183.397 409.042 191.248V274.448ZM532.36 298V162.064H545.672L551.304 179.216C552.157 178.704 554.291 177.424 557.704 175.376C561.288 173.328 563.592 172.048 564.616 171.536C565.811 170.853 567.944 169.744 571.016 168.208C574.088 166.672 576.477 165.648 578.184 165.136C580.061 164.453 582.365 163.685 585.096 162.832C587.997 161.979 590.813 161.381 593.544 161.04C596.275 160.699 599.091 160.528 601.992 160.528C611.891 160.528 618.205 161.211 620.936 162.576V181.264C616.84 180.24 610.525 179.728 601.992 179.728C595.507 179.728 589.277 180.411 583.304 181.776C577.501 183.141 572.808 184.592 569.224 186.128C565.811 187.664 559.837 190.48 551.304 194.576V298H532.36ZM638.8 229.392C638.8 214.373 639.824 202.341 641.872 193.296C643.92 184.08 647.589 177.168 652.88 172.56C658.341 167.781 664.315 164.709 670.8 163.344C677.456 161.808 686.587 161.04 698.192 161.04C707.579 161.04 714.917 161.467 720.208 162.32C725.499 163.173 730.704 165.136 735.824 168.208C740.944 171.28 744.613 176.144 746.832 182.8C749.051 189.456 750.16 198.245 750.16 209.168C750.16 229.989 738.469 240.4 715.088 240.4H657.744C657.744 256.272 659.536 266.939 663.12 272.4C666.704 277.691 673.531 280.336 683.6 280.336C684.795 280.336 686.587 280.336 688.976 280.336C691.365 280.336 693.157 280.336 694.352 280.336C718.245 280.336 735.995 279.483 747.6 277.776V292.112C730.704 296.891 709.371 299.28 683.6 299.28C666.363 299.28 654.587 294.331 648.272 284.432C641.957 274.533 638.8 256.187 638.8 229.392ZM657.744 221.712H715.088C725.84 221.712 731.216 217.531 731.216 209.168C731.216 196.027 729.253 187.92 725.328 184.848C721.573 181.605 712.613 179.984 698.448 179.984C692.475 179.984 688.037 180.069 685.136 180.24C682.405 180.411 679.077 180.923 675.152 181.776C671.397 182.459 668.667 183.653 666.96 185.36C665.424 187.067 663.717 189.456 661.84 192.528C660.133 195.6 659.024 199.525 658.512 204.304C658 209.083 657.744 214.885 657.744 221.712ZM770.74 206.352V194.576C770.74 183.483 773.471 175.12 778.932 169.488C784.393 163.685 793.439 160.784 806.068 160.784C822.281 160.784 844.553 162.149 872.884 164.88V179.472H806.068C802.143 179.472 798.985 179.813 796.596 180.496C794.207 181.179 792.5 182.373 791.476 184.08C790.623 185.616 790.111 187.067 789.94 188.432C789.769 189.797 789.684 191.845 789.684 194.576V206.352C789.684 209.765 790.025 212.496 790.708 214.544C791.561 216.592 792.841 218.043 794.548 218.896C796.255 219.749 797.876 220.347 799.412 220.688C800.948 220.859 803.167 220.944 806.068 220.944H846.516C857.268 220.944 865.46 224.016 871.092 230.16C876.895 236.133 879.796 244.069 879.796 253.968V266.512C879.796 279.141 876.724 287.76 870.58 292.368C864.436 296.976 856.415 299.28 846.516 299.28C830.644 299.28 807.263 297.659 776.372 294.416V280.336H846.516C846.857 280.336 847.199 280.336 847.54 280.336C848.735 280.336 849.929 280.251 851.124 280.08C852.319 279.739 853.684 279.141 855.22 278.288C856.927 277.435 858.292 275.984 859.316 273.936C860.34 271.888 860.852 269.413 860.852 266.512V253.968C860.852 249.189 859.743 245.691 857.524 243.472C855.476 241.083 851.807 239.888 846.516 239.888H806.068C793.609 239.888 784.564 237.499 778.932 232.72C773.471 227.941 770.74 219.152 770.74 206.352ZM900.24 206.352V194.576C900.24 183.483 902.971 175.12 908.432 169.488C913.893 163.685 922.939 160.784 935.568 160.784C951.781 160.784 974.053 162.149 1002.38 164.88V179.472H935.568C931.643 179.472 928.485 179.813 926.096 180.496C923.707 181.179 922 182.373 920.976 184.08C920.123 185.616 919.611 187.067 919.44 188.432C919.269 189.797 919.184 191.845 919.184 194.576V206.352C919.184 209.765 919.525 212.496 920.208 214.544C921.061 216.592 922.341 218.043 924.048 218.896C925.755 219.749 927.376 220.347 928.912 220.688C930.448 220.859 932.667 220.944 935.568 220.944H976.016C986.768 220.944 994.96 224.016 1000.59 230.16C1006.39 236.133 1009.3 244.069 1009.3 253.968V266.512C1009.3 279.141 1006.22 287.76 1000.08 292.368C993.936 296.976 985.915 299.28 976.016 299.28C960.144 299.28 936.763 297.659 905.872 294.416V280.336H976.016C976.357 280.336 976.699 280.336 977.04 280.336C978.235 280.336 979.429 280.251 980.624 280.08C981.819 279.739 983.184 279.141 984.72 278.288C986.427 277.435 987.792 275.984 988.816 273.936C989.84 271.888 990.352 269.413 990.352 266.512V253.968C990.352 249.189 989.243 245.691 987.024 243.472C984.976 241.083 981.307 239.888 976.016 239.888H935.568C923.109 239.888 914.064 237.499 908.432 232.72C902.971 227.941 900.24 219.152 900.24 206.352ZM1041.26 292.112V277.52C1041.26 273.253 1043.31 271.12 1047.4 271.12H1060.97C1065.24 271.12 1067.37 273.253 1067.37 277.52V292.112C1067.37 296.037 1065.24 298 1060.97 298H1047.4C1043.31 298 1041.26 296.037 1041.26 292.112ZM1109.73 265.744V110.608H1128.67V265.744C1128.67 267.621 1128.84 269.243 1129.19 270.608C1129.53 271.973 1129.87 273.168 1130.21 274.192C1130.72 275.045 1131.4 275.813 1132.26 276.496C1133.11 277.179 1133.88 277.691 1134.56 278.032C1135.42 278.373 1136.44 278.629 1137.63 278.8C1138.83 278.971 1139.77 279.056 1140.45 279.056C1141.3 279.056 1142.41 279.056 1143.78 279.056C1143.78 279.056 1143.86 279.056 1144.03 279.056C1144.2 279.056 1144.38 279.056 1144.55 279.056H1222.88V298H1144.55C1139.6 298 1135.33 297.659 1131.75 296.976C1128.16 296.293 1124.58 294.928 1120.99 292.88C1117.41 290.832 1114.59 287.504 1112.55 282.896C1110.67 278.288 1109.73 272.571 1109.73 265.744ZM1241.99 265.744V250.128C1241.99 239.717 1244.98 231.44 1250.95 225.296C1257.09 219.152 1265.46 216.08 1276.04 216.08C1292.93 216.08 1306.93 216.08 1318.02 216.08C1322.63 216.08 1326.21 216.08 1328.77 216.08C1331.5 216.08 1332.87 216.08 1332.87 216.08C1332.87 211.131 1332.87 206.949 1332.87 203.536C1332.87 202.853 1332.87 202.256 1332.87 201.744C1332.87 201.232 1332.87 200.805 1332.87 200.464C1332.87 199.952 1332.87 199.611 1332.87 199.44C1332.87 199.099 1332.87 198.928 1332.87 198.928C1332.87 184.933 1325.87 177.936 1311.88 177.936C1296.52 177.936 1274.67 178.96 1246.34 181.008V167.184C1263.58 162.405 1285.68 159.845 1312.65 159.504C1312.82 159.504 1313.07 159.504 1313.41 159.504C1324.68 159.504 1333.89 162.832 1341.06 169.488C1348.23 175.973 1351.81 185.787 1351.81 198.928V298H1337.73L1332.87 281.616L1329.03 283.408C1326.64 284.603 1323.4 286.139 1319.3 288.016C1315.21 289.723 1310.77 291.515 1305.99 293.392C1301.21 295.099 1296.09 296.549 1290.63 297.744C1285.17 298.939 1280.3 299.536 1276.04 299.536C1266.31 299.536 1258.2 296.549 1251.72 290.576C1245.23 284.603 1241.99 276.325 1241.99 265.744ZM1260.93 264.464C1260.93 275.216 1265.97 280.592 1276.04 280.592C1282.18 280.592 1289.95 279.483 1299.33 277.264C1308.89 275.045 1316.91 272.912 1323.4 270.864L1332.87 267.536V230.928L1276.04 235.024C1270.92 235.536 1267.08 237.328 1264.52 240.4C1262.13 243.472 1260.93 247.227 1260.93 251.664V264.464ZM1379.86 298V97.04H1398.29V170.256C1405.97 167.184 1414.68 164.709 1424.4 162.832C1434.3 160.955 1442.41 160.016 1448.72 160.016C1457.94 160.016 1465.62 161.979 1471.76 165.904C1478.08 169.829 1482.69 175.461 1485.59 182.8C1488.66 189.968 1490.71 197.307 1491.73 204.816C1492.93 212.155 1493.52 220.773 1493.52 230.672C1493.52 239.376 1492.84 247.483 1491.48 254.992C1490.28 262.331 1488.15 269.584 1485.08 276.752C1482 283.749 1477.4 289.296 1471.25 293.392C1465.11 297.488 1457.6 299.536 1448.72 299.536C1440.87 299.536 1431.57 297.573 1420.82 293.648C1410.24 289.552 1402.81 285.968 1398.55 282.896L1393.43 298H1379.86ZM1398.55 268.816C1417.83 276.667 1434.56 280.592 1448.72 280.592C1465.96 280.592 1474.58 263.952 1474.58 230.672C1474.58 210.875 1472.45 197.307 1468.18 189.968C1464.08 182.629 1457.6 178.96 1448.72 178.96C1432.34 178.96 1415.61 181.179 1398.55 185.616V268.816ZM1516.49 206.352V194.576C1516.49 183.483 1519.22 175.12 1524.68 169.488C1530.14 163.685 1539.19 160.784 1551.82 160.784C1568.03 160.784 1590.3 162.149 1618.63 164.88V179.472H1551.82C1547.89 179.472 1544.74 179.813 1542.35 180.496C1539.96 181.179 1538.25 182.373 1537.23 184.08C1536.37 185.616 1535.86 187.067 1535.69 188.432C1535.52 189.797 1535.43 191.845 1535.43 194.576V206.352C1535.43 209.765 1535.78 212.496 1536.46 214.544C1537.31 216.592 1538.59 218.043 1540.3 218.896C1542 219.749 1543.63 220.347 1545.16 220.688C1546.7 220.859 1548.92 220.944 1551.82 220.944H1592.27C1603.02 220.944 1611.21 224.016 1616.84 230.16C1622.64 236.133 1625.55 244.069 1625.55 253.968V266.512C1625.55 279.141 1622.47 287.76 1616.33 292.368C1610.19 296.976 1602.16 299.28 1592.27 299.28C1576.39 299.28 1553.01 297.659 1522.12 294.416V280.336H1592.27C1592.61 280.336 1592.95 280.336 1593.29 280.336C1594.48 280.336 1595.68 280.251 1596.87 280.08C1598.07 279.739 1599.43 279.141 1600.97 278.288C1602.68 277.435 1604.04 275.984 1605.07 273.936C1606.09 271.888 1606.6 269.413 1606.6 266.512V253.968C1606.6 249.189 1605.49 245.691 1603.27 243.472C1601.23 241.083 1597.56 239.888 1592.27 239.888H1551.82C1539.36 239.888 1530.31 237.499 1524.68 232.72C1519.22 227.941 1516.49 219.152 1516.49 206.352ZM1657.51 292.112V277.52C1657.51 273.253 1659.56 271.12 1663.65 271.12H1677.22C1681.49 271.12 1683.62 273.253 1683.62 277.52V292.112C1683.62 296.037 1681.49 298 1677.22 298H1663.65C1659.56 298 1657.51 296.037 1657.51 292.112Z" fill="#181818"/>
</svg>
